<svg width="1095" height="1110" viewBox="0 0 1095 1110" fill="none" xmlns="http://www.w3.org/2000/svg">
<g opacity="0.1">
<path fill-rule="evenodd" clip-rule="evenodd" d="M795.891 832H1021.37C1142.83 620.001 1114.02 343.806 934.951 162.262C721.557 -54.0874 375.578 -54.0873 162.185 162.262C127.478 197.449 98.417 236.192 75 277.334H299.399C444.346 142.846 669.461 146.731 809.776 288.99C906.081 386.629 938.093 524.769 905.811 649.331H821.432V649.304C770.397 648.095 729.348 605.948 728.999 553.998H547.901L547.9 554.665C547.9 699.506 657.415 818.412 797.073 830.912C796.679 831.276 796.286 831.638 795.891 832Z" fill="url(#paint0_linear)"/>
<path fill-rule="evenodd" clip-rule="evenodd" d="M299.107 278H73.6241C-47.8257 489.997 -19.0185 766.191 160.046 947.735C373.44 1164.09 719.421 1164.09 932.815 947.735C967.521 912.548 996.583 873.806 1020 832.664H795.601C650.653 967.152 425.536 963.266 285.221 821.007C188.916 723.369 156.904 585.23 189.185 460.668H273.565C324.601 461.876 365.65 504.051 365.998 556.001L547.097 556V555.332C547.097 410.493 437.582 291.587 297.925 279.087C298.317 278.724 298.712 278.361 299.107 278Z" fill="url(#paint1_linear)"/>
</g>
<defs>
<linearGradient id="paint0_linear" x1="556.888" y1="556.785" x2="59.6394" y2="297.483" gradientUnits="userSpaceOnUse">
<stop offset="0.0001" stop-color="#2979FF"/>
<stop offset="1" stop-color="#2979FF" stop-opacity="0"/>
</linearGradient>
<linearGradient id="paint1_linear" x1="536.095" y1="556.794" x2="1035.36" y2="812.517" gradientUnits="userSpaceOnUse">
<stop offset="0.0001" stop-color="#2979FF"/>
<stop offset="1" stop-color="#2979FF" stop-opacity="0"/>
</linearGradient>
</defs>
</svg>
