<svg width="162" height="38" fill="none" xmlns="http://www.w3.org/2000/svg">
    <path fill-rule="evenodd" clip-rule="evenodd" d="M27.682 28.483h7.844c4.225-7.258 3.223-16.713-3.006-22.928-7.424-7.407-19.46-7.407-26.883 0a18.996 18.996 0 0 0-3.033 3.94h7.806c5.043-4.605 12.874-4.472 17.755.398a12.796 12.796 0 0 1 3.341 12.337h-2.935v-.001a3.29 3.29 0 0 1-3.216-3.263h-6.3v.023c0 4.958 3.81 9.029 8.668 9.457a7.29 7.29 0 0 1-.04.037z" fill="url(#a)"/>
    <path fill-rule="evenodd" clip-rule="evenodd" d="M10.405 9.517H2.561C-1.664 16.775-.662 26.23 5.568 32.445c7.423 7.407 19.46 7.407 26.883 0a18.996 18.996 0 0 0 3.033-3.94h-7.806c-5.043 4.605-12.874 4.472-17.756-.398a12.796 12.796 0 0 1-3.34-12.337h2.935a3.29 3.29 0 0 1 3.215 3.264h6.3v-.023c0-4.958-3.81-9.029-8.668-9.457l.041-.037z" fill="url(#b)"/>
    <path d="M52.816 28.29h4.476v-6.742h7.183v-3.82h-7.183v-4.691h8.067V8.936H52.816V28.29zM67.814 28.29h4.19V8.514h-4.19V28.29zM89.352 19.947c0-3.54-2.65-6.32-7.097-6.32-4.333 0-7.64 2.809-7.64 7.584 0 4.607 3.222 7.529 8.067 7.529 2.366 0 4.133-.366 5.701-1.236v-3.006h-.285c-1.51.646-2.85.927-4.788.927-2.082 0-4.248-.674-4.761-3.034h10.347c.342-.73.456-1.657.456-2.444zm-3.591-.197h-7.183c.456-2.19 1.995-3.09 3.733-3.09 2.11 0 3.393 1.32 3.45 2.894v.197zM105.887 19.947c0-3.54-2.65-6.32-7.097-6.32-4.333 0-7.64 2.809-7.64 7.584 0 4.607 3.221 7.529 8.067 7.529 2.366 0 4.134-.366 5.701-1.236v-3.006h-.285c-1.51.646-2.85.927-4.789.927-2.08 0-4.247-.674-4.76-3.034h10.347c.342-.73.456-1.657.456-2.444zm-3.591-.197h-7.183c.456-2.19 1.995-3.09 3.734-3.09 2.109 0 3.392 1.32 3.449 2.894v.197zM118.292 24.526h-.285c-.399.169-1.054.45-1.938.45-1.625 0-2.537-.815-2.537-2.782v-4.69h4.276v-3.456h-4.305v-3.146h-3.164l-.655 3.146h-2.452v3.455h2.11v4.635c0 4.748 2.337 6.573 5.929 6.573.912 0 2.251-.168 3.05-.533l-.029-3.652zM120.509 34.049h4.19v-7.107h.228c.684.899 2.309 1.77 4.247 1.77 4.248 0 7.412-3.287 7.412-7.557 0-4.214-2.879-7.528-7.355-7.528-2.565 0-4.275 1.011-4.988 2.078h-.228l-.427-1.657h-3.079v20zm8.067-9.046c-2.252 0-3.962-1.741-3.962-3.82 0-2.163 1.767-3.848 3.962-3.848 2.166 0 3.876 1.545 3.876 3.848 0 2.247-1.738 3.82-3.876 3.82zM145.886 28.712c2.167 0 3.934-.843 4.932-2.248h.228l.627 1.826h2.765V14.048h-2.736l-.599 1.798h-.257c-.969-1.377-2.765-2.22-4.931-2.22-4.618 0-7.525 3.484-7.525 7.726 0 4.017 2.907 7.36 7.496 7.36zm.513-3.709c-2.166 0-3.905-1.573-3.905-3.82 0-2.303 1.739-3.848 3.877-3.848 2.195 0 3.962 1.685 3.962 3.848 0 2.079-1.71 3.82-3.934 3.82zM157.81 28.29H162V8.514h-4.19V28.29z" fill="#2979FF"/>
    <defs>
        <linearGradient id="a" x1="19.368" y1="19.061" x2="2.189" y2="9.958" gradientUnits="userSpaceOnUse">
            <stop offset="0" stop-color="#2979FF"/>
            <stop offset="1" stop-color="#2979FF" stop-opacity="0"/>
        </linearGradient>
        <linearGradient id="b" x1="18.65" y1="19.061" x2="35.901" y2="28.04" gradientUnits="userSpaceOnUse">
            <stop offset="0" stop-color="#2979FF"/>
            <stop offset="1" stop-color="#2979FF" stop-opacity="0"/>
        </linearGradient>
    </defs>
</svg>
