<svg width="4355" height="1026" viewBox="0 0 4355 1026" fill="none" xmlns="http://www.w3.org/2000/svg">
<g clip-path="url(#clip0)">
<path fill-rule="evenodd" clip-rule="evenodd" d="M735.506 767.93L943.945 767.93C1056.22 572.239 1029.59 317.29 864.056 149.711C666.791 -49.9961 346.962 -49.996 149.697 149.711C117.614 182.191 90.7491 217.954 69.102 255.931H276.54C410.532 131.788 618.632 135.375 748.342 266.69C837.368 356.819 866.96 484.332 837.118 599.313L759.117 599.313L759.117 599.288C711.939 598.172 673.993 559.267 673.67 511.313L506.26 511.313L506.259 511.929C506.259 645.628 607.497 755.387 736.599 766.926C736.235 767.262 735.871 767.596 735.506 767.93Z" fill="url(#paint0_radial)"/>
<path fill-rule="evenodd" clip-rule="evenodd" d="M735.506 767.93L943.945 767.93C1056.22 572.239 1029.59 317.29 864.056 149.711C666.791 -49.9961 346.962 -49.996 149.697 149.711C117.614 182.191 90.7491 217.954 69.102 255.931H276.54C410.532 131.788 618.632 135.375 748.342 266.69C837.368 356.819 866.96 484.332 837.118 599.313L759.117 599.313L759.117 599.288C711.939 598.172 673.993 559.267 673.67 511.313L506.26 511.313L506.259 511.929C506.259 645.628 607.497 755.387 736.599 766.926C736.235 767.262 735.871 767.596 735.506 767.93Z" fill="url(#paint1_linear)"/>
<path fill-rule="evenodd" clip-rule="evenodd" d="M276.433 256.54L67.9934 256.54C-44.2765 452.23 -17.6467 707.179 147.883 874.759C345.148 1074.47 664.977 1074.47 862.242 874.759C894.325 842.278 921.19 806.516 942.837 768.539L735.399 768.539C601.407 892.682 393.306 889.095 263.597 757.779C174.571 667.651 144.979 540.138 174.82 425.157L252.822 425.157L252.822 425.182C300 426.297 337.946 465.203 338.268 513.157L505.679 513.156L505.679 512.54C505.679 378.842 404.441 269.082 275.34 257.543C275.703 257.208 276.068 256.873 276.433 256.54Z" fill="url(#paint2_radial)"/>
<path fill-rule="evenodd" clip-rule="evenodd" d="M276.433 256.54L67.9934 256.54C-44.2765 452.23 -17.6467 707.179 147.883 874.759C345.148 1074.47 664.977 1074.47 862.242 874.759C894.325 842.278 921.19 806.516 942.837 768.539L735.399 768.539C601.407 892.682 393.306 889.095 263.597 757.779C174.571 667.651 144.979 540.138 174.82 425.157L252.822 425.157L252.822 425.182C300 426.297 337.946 465.203 338.268 513.157L505.679 513.156L505.679 512.54C505.679 378.842 404.441 269.082 275.34 257.543C275.703 257.208 276.068 256.873 276.433 256.54Z" fill="url(#paint3_linear)"/>
</g>
<path d="M1403.41 762.728H1522.33V580.946H1713.21V477.936H1522.33V351.446H1736.69V240.861H1403.41V762.728Z" fill="#1500F8"/>
<path d="M1801.91 762.728H1913.25V229.5H1801.91V762.728Z" fill="#1500F8"/>
<path d="M2374.27 537.772C2374.27 442.337 2303.83 367.352 2185.67 367.352C2070.54 367.352 1982.67 443.094 1982.67 571.856C1982.67 696.074 2068.27 774.847 2197.03 774.847C2259.9 774.847 2306.86 765 2348.52 741.52V660.475H2340.95C2300.8 677.896 2265.2 685.47 2213.7 685.47C2158.4 685.47 2100.84 667.292 2087.2 603.668H2362.16C2371.24 583.975 2374.27 558.98 2374.27 537.772ZM2278.84 532.47H2087.96C2100.08 473.391 2140.98 449.153 2187.18 449.153C2243.24 449.153 2277.32 484.753 2278.84 527.168V532.47Z" fill="#1500F8"/>
<path d="M2813.65 537.772C2813.65 442.337 2743.21 367.352 2625.05 367.352C2509.92 367.352 2422.05 443.094 2422.05 571.856C2422.05 696.074 2507.64 774.847 2636.41 774.847C2699.28 774.847 2746.24 765 2787.9 741.52V660.475H2780.33C2740.18 677.896 2704.58 685.47 2653.07 685.47C2597.78 685.47 2540.21 667.292 2526.58 603.668H2801.53C2810.62 583.975 2813.65 558.98 2813.65 537.772ZM2718.21 532.47H2527.34C2539.46 473.391 2580.36 449.153 2626.56 449.153C2682.61 449.153 2716.7 484.753 2718.21 527.168V532.47Z" fill="#1500F8"/>
<path d="M3143.26 661.233H3135.68C3125.08 665.777 3107.66 673.351 3084.17 673.351C3041 673.351 3016.76 651.386 3016.76 598.366V471.876H3130.38V378.713H3016V293.881H2931.93L2914.51 378.713H2849.37V471.876H2905.42V596.852C2905.42 724.856 2967.53 774.089 3062.97 774.089C3087.2 774.089 3122.8 769.545 3144.01 759.698L3143.26 661.233Z" fill="#1500F8"/>
<path d="M3202.15 918H3313.5V726.371H3319.56C3337.74 750.609 3380.91 774.089 3432.42 774.089C3545.28 774.089 3629.35 685.47 3629.35 570.342C3629.35 456.728 3552.85 367.352 3433.93 367.352C3365.76 367.352 3320.32 394.619 3301.38 423.401H3295.32L3283.96 378.713H3202.15V918ZM3416.51 674.109C3356.67 674.109 3311.23 627.149 3311.23 571.099C3311.23 512.777 3358.19 467.332 3416.51 467.332C3474.08 467.332 3519.52 508.99 3519.52 571.099C3519.52 631.693 3473.32 674.109 3416.51 674.109Z" fill="#1500F8"/>
<path d="M3876.51 774.089C3934.07 774.089 3981.03 751.366 4007.55 713.495H4013.6L4030.27 762.728H4103.74V378.713H4031.03L4015.12 427.188H4008.3C3982.55 390.074 3934.83 367.352 3877.26 367.352C3754.56 367.352 3677.3 461.272 3677.3 575.644C3677.3 683.955 3754.56 774.089 3876.51 774.089ZM3890.14 674.109C3832.57 674.109 3786.37 631.693 3786.37 571.099C3786.37 508.99 3832.57 467.332 3889.38 467.332C3947.71 467.332 3994.67 512.777 3994.67 571.099C3994.67 627.149 3949.22 674.109 3890.14 674.109Z" fill="#1500F8"/>
<path d="M4193.34 762.728H4304.69V229.5H4193.34V762.728Z" fill="#1500F8"/>
<defs>
<radialGradient id="paint0_radial" cx="0" cy="0" r="1" gradientUnits="userSpaceOnUse" gradientTransform="translate(588.885 607.307) rotate(-141.614) scale(743.08 1132.29)">
<stop stop-color="#1500F8"/>
<stop offset="1" stop-color="#1500F8" stop-opacity="0"/>
</radialGradient>
<linearGradient id="paint1_linear" x1="895.925" y1="453.966" x2="55.0576" y2="274.233" gradientUnits="userSpaceOnUse">
<stop offset="0.0001" stop-color="#1500F8"/>
<stop offset="1" stop-color="#1500F8" stop-opacity="0"/>
</linearGradient>
<radialGradient id="paint2_radial" cx="0" cy="0" r="1" gradientUnits="userSpaceOnUse" gradientTransform="translate(423.054 417.162) rotate(38.3861) scale(743.08 1132.29)">
<stop stop-color="#1500F8"/>
<stop offset="1" stop-color="#1500F8" stop-opacity="0"/>
</radialGradient>
<linearGradient id="paint3_linear" x1="116.014" y1="570.504" x2="956.881" y2="750.237" gradientUnits="userSpaceOnUse">
<stop offset="0.0001" stop-color="#1500F8"/>
<stop offset="1" stop-color="#1500F8" stop-opacity="0"/>
</linearGradient>
<clipPath id="clip0">
<rect width="1012.07" height="1026" fill="white"/>
</clipPath>
</defs>
</svg>
